<mxfile host="65bd71144e">
    <diagram id="DrkyC3V2zFr1rEeItjGi" name="Page-1">
        <mxGraphModel dx="1384" dy="1296" grid="1" gridSize="10" guides="1" tooltips="1" connect="1" arrows="1" fold="1" page="1" pageScale="1" pageWidth="850" pageHeight="1100" math="0" shadow="0">
            <root>
                <mxCell id="0"/>
                <mxCell id="1" parent="0"/>
                <mxCell id="99" style="html=1;entryX=0;entryY=0.5;entryDx=0;entryDy=0;entryPerimeter=0;edgeStyle=elbowEdgeStyle;endArrow=none;endFill=0;exitX=1;exitY=0.5;exitDx=0;exitDy=0;exitPerimeter=0;" parent="1" source="10" target="47" edge="1">
                    <mxGeometry relative="1" as="geometry">
                        <mxPoint x="332.2499999999998" y="290" as="targetPoint"/>
                        <Array as="points">
                            <mxPoint x="270" y="370"/>
                            <mxPoint x="329" y="250"/>
                        </Array>
                    </mxGeometry>
                </mxCell>
                <mxCell id="10" value="&amp;lt;&amp;lt;node&amp;gt;&amp;gt;&lt;br&gt;Clieant Application" style="html=1;outlineConnect=0;whiteSpace=wrap;shape=mxgraph.archimate.application;appType=node;align=center;verticalAlign=top;" parent="1" vertex="1">
                    <mxGeometry x="18.25" y="30" width="209" height="230" as="geometry"/>
                </mxCell>
                <mxCell id="29" value="«c&lt;span style=&quot;border-color: var(--border-color);&quot;&gt;omponent&lt;/span&gt;»&lt;br&gt;Web Application" style="html=1;dropTarget=0;verticalAlign=top;" parent="1" vertex="1">
                    <mxGeometry x="32.75" y="80" width="180" height="50" as="geometry"/>
                </mxCell>
                <mxCell id="30" value="" style="shape=module;jettyWidth=8;jettyHeight=4;" parent="29" vertex="1">
                    <mxGeometry x="1" width="20" height="20" relative="1" as="geometry">
                        <mxPoint x="-27" y="7" as="offset"/>
                    </mxGeometry>
                </mxCell>
                <mxCell id="31" value="«c&lt;span style=&quot;border-color: var(--border-color);&quot;&gt;omponent&lt;/span&gt;»&lt;br&gt;Mobile UI" style="html=1;dropTarget=0;verticalAlign=top;" parent="1" vertex="1">
                    <mxGeometry x="32.75" y="140" width="180" height="50" as="geometry"/>
                </mxCell>
                <mxCell id="32" value="" style="shape=module;jettyWidth=8;jettyHeight=4;" parent="31" vertex="1">
                    <mxGeometry x="1" width="20" height="20" relative="1" as="geometry">
                        <mxPoint x="-27" y="7" as="offset"/>
                    </mxGeometry>
                </mxCell>
                <mxCell id="38" value="&amp;lt;&amp;lt;node&amp;gt;&amp;gt;&lt;br&gt;OCR Service" style="html=1;outlineConnect=0;whiteSpace=wrap;shape=mxgraph.archimate.application;appType=node;align=center;verticalAlign=top;" parent="1" vertex="1">
                    <mxGeometry x="10" y="690" width="240" height="520" as="geometry"/>
                </mxCell>
                <mxCell id="39" value="«c&lt;span style=&quot;border-color: var(--border-color);&quot;&gt;omponent&lt;/span&gt;»&lt;br&gt;Image Preprocessing" style="html=1;dropTarget=0;verticalAlign=top;" parent="1" vertex="1">
                    <mxGeometry x="30" y="740" width="200" height="130" as="geometry"/>
                </mxCell>
                <mxCell id="40" value="" style="shape=module;jettyWidth=8;jettyHeight=4;" parent="39" vertex="1">
                    <mxGeometry x="1" width="20" height="20" relative="1" as="geometry">
                        <mxPoint x="-27" y="7" as="offset"/>
                    </mxGeometry>
                </mxCell>
                <mxCell id="45" value="«c&lt;span style=&quot;border-color: var(--border-color);&quot;&gt;omponent&lt;/span&gt;»&lt;br&gt;Desktop Application" style="html=1;dropTarget=0;verticalAlign=top;" parent="1" vertex="1">
                    <mxGeometry x="32.75" y="200" width="180" height="50" as="geometry"/>
                </mxCell>
                <mxCell id="46" value="" style="shape=module;jettyWidth=8;jettyHeight=4;" parent="45" vertex="1">
                    <mxGeometry x="1" width="20" height="20" relative="1" as="geometry">
                        <mxPoint x="-27" y="7" as="offset"/>
                    </mxGeometry>
                </mxCell>
                <mxCell id="125" style="edgeStyle=orthogonalEdgeStyle;html=1;exitX=0;exitY=0.5;exitDx=0;exitDy=0;exitPerimeter=0;endArrow=none;endFill=0;entryX=1;entryY=0.25;entryDx=0;entryDy=0;entryPerimeter=0;" edge="1" parent="1" source="47" target="38">
                    <mxGeometry relative="1" as="geometry">
                        <mxPoint x="260" y="470" as="targetPoint"/>
                        <Array as="points">
                            <mxPoint x="270" y="420"/>
                            <mxPoint x="270" y="810"/>
                            <mxPoint x="250" y="810"/>
                        </Array>
                    </mxGeometry>
                </mxCell>
                <mxCell id="132" style="edgeStyle=orthogonalEdgeStyle;html=1;entryX=0;entryY=0.25;entryDx=0;entryDy=0;entryPerimeter=0;endArrow=none;endFill=0;" edge="1" parent="1" source="47" target="68">
                    <mxGeometry relative="1" as="geometry">
                        <Array as="points">
                            <mxPoint x="580" y="420"/>
                            <mxPoint x="580" y="915"/>
                        </Array>
                    </mxGeometry>
                </mxCell>
                <mxCell id="47" value="&amp;lt;&amp;lt;node&amp;gt;&amp;gt;&lt;br&gt;API Gateway" style="html=1;outlineConnect=0;whiteSpace=wrap;shape=mxgraph.archimate.application;appType=node;align=center;verticalAlign=top;" parent="1" vertex="1">
                    <mxGeometry x="311" y="270" width="209" height="300" as="geometry"/>
                </mxCell>
                <mxCell id="48" value="«c&lt;span style=&quot;border-color: var(--border-color);&quot;&gt;omponent&lt;/span&gt;»&lt;br&gt;Request Router" style="html=1;dropTarget=0;verticalAlign=top;" parent="1" vertex="1">
                    <mxGeometry x="325.5" y="320" width="180" height="50" as="geometry"/>
                </mxCell>
                <mxCell id="49" value="" style="shape=module;jettyWidth=8;jettyHeight=4;" parent="48" vertex="1">
                    <mxGeometry x="1" width="20" height="20" relative="1" as="geometry">
                        <mxPoint x="-27" y="7" as="offset"/>
                    </mxGeometry>
                </mxCell>
                <mxCell id="52" value="«c&lt;span style=&quot;border-color: var(--border-color);&quot;&gt;omponent&lt;/span&gt;»&lt;br&gt;Rate Limiter" style="html=1;dropTarget=0;verticalAlign=top;" parent="1" vertex="1">
                    <mxGeometry x="325" y="380" width="180" height="50" as="geometry"/>
                </mxCell>
                <mxCell id="53" value="" style="shape=module;jettyWidth=8;jettyHeight=4;" parent="52" vertex="1">
                    <mxGeometry x="1" width="20" height="20" relative="1" as="geometry">
                        <mxPoint x="-27" y="7" as="offset"/>
                    </mxGeometry>
                </mxCell>
                <mxCell id="54" value="«c&lt;span style=&quot;border-color: var(--border-color);&quot;&gt;omponent&lt;/span&gt;»&lt;br&gt;Response Cache" style="html=1;dropTarget=0;verticalAlign=top;" parent="1" vertex="1">
                    <mxGeometry x="325" y="435" width="180" height="50" as="geometry"/>
                </mxCell>
                <mxCell id="55" value="" style="shape=module;jettyWidth=8;jettyHeight=4;" parent="54" vertex="1">
                    <mxGeometry x="1" width="20" height="20" relative="1" as="geometry">
                        <mxPoint x="-27" y="7" as="offset"/>
                    </mxGeometry>
                </mxCell>
                <mxCell id="57" value="«c&lt;span style=&quot;border-color: var(--border-color);&quot;&gt;omponent&lt;/span&gt;»&lt;br&gt;Aggregation" style="html=1;dropTarget=0;verticalAlign=top;" parent="1" vertex="1">
                    <mxGeometry x="325" y="495" width="180" height="50" as="geometry"/>
                </mxCell>
                <mxCell id="58" value="" style="shape=module;jettyWidth=8;jettyHeight=4;" parent="57" vertex="1">
                    <mxGeometry x="1" width="20" height="20" relative="1" as="geometry">
                        <mxPoint x="-27" y="7" as="offset"/>
                    </mxGeometry>
                </mxCell>
                <mxCell id="59" value="&amp;lt;&amp;lt;artifact&amp;gt;&amp;gt;&lt;br&gt;Image processing (noise reduction, binarization, normalization)" style="html=1;outlineConnect=0;whiteSpace=wrap;shape=mxgraph.archimate3.application;appType=artifact;archiType=square;verticalAlign=top;" parent="1" vertex="1">
                    <mxGeometry x="65.5" y="780" width="134.5" height="70" as="geometry"/>
                </mxCell>
                <mxCell id="62" value="«c&lt;span style=&quot;border-color: var(--border-color);&quot;&gt;omponent&lt;/span&gt;»&lt;br&gt;Image PostProcessing" style="html=1;dropTarget=0;verticalAlign=top;" parent="1" vertex="1">
                    <mxGeometry x="30" y="890" width="200" height="180" as="geometry"/>
                </mxCell>
                <mxCell id="63" value="" style="shape=module;jettyWidth=8;jettyHeight=4;" parent="62" vertex="1">
                    <mxGeometry x="1" width="20" height="20" relative="1" as="geometry">
                        <mxPoint x="-27" y="7" as="offset"/>
                    </mxGeometry>
                </mxCell>
                <mxCell id="64" value="&amp;lt;&amp;lt;artifact&amp;gt;&amp;gt;&lt;br&gt;Text recognition, Font recognition" style="html=1;outlineConnect=0;whiteSpace=wrap;shape=mxgraph.archimate3.application;appType=artifact;archiType=square;verticalAlign=top;" parent="1" vertex="1">
                    <mxGeometry x="65.5" y="930" width="134.5" height="50" as="geometry"/>
                </mxCell>
                <mxCell id="61" value="&amp;lt;&amp;lt;artifact&amp;gt;&amp;gt;&lt;br&gt;Contextual analysis (distinguish characters, symbols)" style="html=1;outlineConnect=0;whiteSpace=wrap;shape=mxgraph.archimate3.application;appType=artifact;archiType=square;verticalAlign=top;" parent="1" vertex="1">
                    <mxGeometry x="65.5" y="990" width="134.5" height="70" as="geometry"/>
                </mxCell>
                <mxCell id="65" value="«c&lt;span style=&quot;border-color: var(--border-color);&quot;&gt;omponent&lt;/span&gt;»&lt;br&gt;Training" style="html=1;dropTarget=0;verticalAlign=top;" parent="1" vertex="1">
                    <mxGeometry x="30" y="1080" width="200" height="110" as="geometry"/>
                </mxCell>
                <mxCell id="66" value="" style="shape=module;jettyWidth=8;jettyHeight=4;" parent="65" vertex="1">
                    <mxGeometry x="1" width="20" height="20" relative="1" as="geometry">
                        <mxPoint x="-27" y="7" as="offset"/>
                    </mxGeometry>
                </mxCell>
                <mxCell id="67" value="&amp;lt;&amp;lt;artifact&amp;gt;&amp;gt;&lt;br&gt;OCR training, update pipelines" style="html=1;outlineConnect=0;whiteSpace=wrap;shape=mxgraph.archimate3.application;appType=artifact;archiType=square;verticalAlign=top;" parent="1" vertex="1">
                    <mxGeometry x="65.5" y="1120" width="134.5" height="60" as="geometry"/>
                </mxCell>
                <mxCell id="68" value="&amp;lt;&amp;lt;node&amp;gt;&amp;gt;&lt;br&gt;LaTeX Rendering" style="html=1;outlineConnect=0;whiteSpace=wrap;shape=mxgraph.archimate.application;appType=node;align=center;verticalAlign=top;" parent="1" vertex="1">
                    <mxGeometry x="600" y="850" width="240" height="260" as="geometry"/>
                </mxCell>
                <mxCell id="69" value="«c&lt;span style=&quot;border-color: var(--border-color);&quot;&gt;omponent&lt;/span&gt;»&lt;br&gt;LaTex Rendering Engine" style="html=1;dropTarget=0;verticalAlign=top;" parent="1" vertex="1">
                    <mxGeometry x="620" y="900" width="200" height="60" as="geometry"/>
                </mxCell>
                <mxCell id="70" value="" style="shape=module;jettyWidth=8;jettyHeight=4;" parent="69" vertex="1">
                    <mxGeometry x="1" width="20" height="20" relative="1" as="geometry">
                        <mxPoint x="-27" y="7" as="offset"/>
                    </mxGeometry>
                </mxCell>
                <mxCell id="71" value="«c&lt;span style=&quot;border-color: var(--border-color);&quot;&gt;omponent&lt;/span&gt;»&lt;br&gt;Rendering queue" style="html=1;dropTarget=0;verticalAlign=top;" parent="1" vertex="1">
                    <mxGeometry x="620" y="970" width="200" height="60" as="geometry"/>
                </mxCell>
                <mxCell id="72" value="" style="shape=module;jettyWidth=8;jettyHeight=4;" parent="71" vertex="1">
                    <mxGeometry x="1" width="20" height="20" relative="1" as="geometry">
                        <mxPoint x="-27" y="7" as="offset"/>
                    </mxGeometry>
                </mxCell>
                <mxCell id="73" value="«c&lt;span style=&quot;border-color: var(--border-color);&quot;&gt;omponent&lt;/span&gt;»&lt;br&gt;Cache system" style="html=1;dropTarget=0;verticalAlign=top;" parent="1" vertex="1">
                    <mxGeometry x="620" y="1040" width="200" height="60" as="geometry"/>
                </mxCell>
                <mxCell id="74" value="" style="shape=module;jettyWidth=8;jettyHeight=4;" parent="73" vertex="1">
                    <mxGeometry x="1" width="20" height="20" relative="1" as="geometry">
                        <mxPoint x="-27" y="7" as="offset"/>
                    </mxGeometry>
                </mxCell>
                <mxCell id="182" style="edgeStyle=orthogonalEdgeStyle;html=1;exitX=0;exitY=0.25;exitDx=0;exitDy=0;exitPerimeter=0;entryX=1;entryY=0.5;entryDx=0;entryDy=0;entryPerimeter=0;endArrow=none;endFill=0;" edge="1" parent="1" source="75" target="114">
                    <mxGeometry relative="1" as="geometry">
                        <Array as="points">
                            <mxPoint x="575" y="230"/>
                            <mxPoint x="575" y="200"/>
                            <mxPoint x="529" y="200"/>
                        </Array>
                    </mxGeometry>
                </mxCell>
                <mxCell id="75" value="&amp;lt;&amp;lt;node&amp;gt;&amp;gt;&lt;br&gt;User Database" style="html=1;outlineConnect=0;whiteSpace=wrap;shape=mxgraph.archimate.application;appType=node;align=center;verticalAlign=top;" parent="1" vertex="1">
                    <mxGeometry x="620" y="200" width="240" height="120" as="geometry"/>
                </mxCell>
                <mxCell id="76" value="«c&lt;span style=&quot;border-color: var(--border-color);&quot;&gt;omponent&lt;/span&gt;»&lt;br&gt;Account information" style="html=1;dropTarget=0;verticalAlign=top;" parent="1" vertex="1">
                    <mxGeometry x="640" y="250" width="200" height="50" as="geometry"/>
                </mxCell>
                <mxCell id="77" value="" style="shape=module;jettyWidth=8;jettyHeight=4;" parent="76" vertex="1">
                    <mxGeometry x="1" width="20" height="20" relative="1" as="geometry">
                        <mxPoint x="-27" y="7" as="offset"/>
                    </mxGeometry>
                </mxCell>
                <mxCell id="124" style="edgeStyle=orthogonalEdgeStyle;html=1;endArrow=none;endFill=0;entryX=0;entryY=0.5;entryDx=0;entryDy=0;entryPerimeter=0;exitX=0.75;exitY=1;exitDx=0;exitDy=0;exitPerimeter=0;" edge="1" parent="1" source="82" target="68">
                    <mxGeometry relative="1" as="geometry">
                        <mxPoint x="536" y="835" as="sourcePoint"/>
                        <Array as="points">
                            <mxPoint x="475" y="980"/>
                        </Array>
                    </mxGeometry>
                </mxCell>
                <mxCell id="82" value="&amp;lt;&amp;lt;node&amp;gt;&amp;gt;&lt;br&gt;Input Database" style="html=1;outlineConnect=0;whiteSpace=wrap;shape=mxgraph.archimate.application;appType=node;align=center;verticalAlign=top;" parent="1" vertex="1">
                    <mxGeometry x="305" y="600" width="240" height="260" as="geometry"/>
                </mxCell>
                <mxCell id="83" value="«c&lt;span style=&quot;border-color: var(--border-color);&quot;&gt;omponent&lt;/span&gt;»&lt;br&gt;Processed images, text &lt;br&gt;database" style="html=1;dropTarget=0;verticalAlign=top;" parent="1" vertex="1">
                    <mxGeometry x="325" y="640" width="200" height="60" as="geometry"/>
                </mxCell>
                <mxCell id="84" value="" style="shape=module;jettyWidth=8;jettyHeight=4;" parent="83" vertex="1">
                    <mxGeometry x="1" width="20" height="20" relative="1" as="geometry">
                        <mxPoint x="-27" y="7" as="offset"/>
                    </mxGeometry>
                </mxCell>
                <mxCell id="85" value="«c&lt;span style=&quot;border-color: var(--border-color);&quot;&gt;omponent&lt;/span&gt;»&lt;br&gt;Training data database" style="html=1;dropTarget=0;verticalAlign=top;" parent="1" vertex="1">
                    <mxGeometry x="325" y="790" width="200" height="60" as="geometry"/>
                </mxCell>
                <mxCell id="86" value="" style="shape=module;jettyWidth=8;jettyHeight=4;" parent="85" vertex="1">
                    <mxGeometry x="1" width="20" height="20" relative="1" as="geometry">
                        <mxPoint x="-27" y="7" as="offset"/>
                    </mxGeometry>
                </mxCell>
                <mxCell id="87" value="«c&lt;span style=&quot;border-color: var(--border-color);&quot;&gt;omponent&lt;/span&gt;»&lt;br&gt;Symbols, fonts, LaTeX &lt;br&gt;database" style="html=1;dropTarget=0;verticalAlign=top;whiteSpace=wrap;" parent="1" vertex="1">
                    <mxGeometry x="325" y="710" width="200" height="60" as="geometry"/>
                </mxCell>
                <mxCell id="88" value="" style="shape=module;jettyWidth=8;jettyHeight=4;" parent="87" vertex="1">
                    <mxGeometry x="1" width="20" height="20" relative="1" as="geometry">
                        <mxPoint x="-27" y="7" as="offset"/>
                    </mxGeometry>
                </mxCell>
                <mxCell id="106" style="edgeStyle=elbowEdgeStyle;html=1;entryX=0.5;entryY=0;entryDx=0;entryDy=0;entryPerimeter=0;endArrow=none;endFill=0;exitX=0.5;exitY=1;exitDx=0;exitDy=0;exitPerimeter=0;" edge="1" parent="1" source="47" target="82">
                    <mxGeometry relative="1" as="geometry">
                        <mxPoint x="531.25" y="665" as="sourcePoint"/>
                        <mxPoint x="298" y="880" as="targetPoint"/>
                        <Array as="points">
                            <mxPoint x="416" y="740"/>
                            <mxPoint x="460" y="760"/>
                            <mxPoint x="358" y="780"/>
                            <mxPoint x="498" y="730"/>
                            <mxPoint x="428" y="710"/>
                        </Array>
                    </mxGeometry>
                </mxCell>
                <mxCell id="108" style="edgeStyle=elbowEdgeStyle;html=1;entryX=0.25;entryY=1;entryDx=0;entryDy=0;entryPerimeter=0;endArrow=none;endFill=0;exitX=1;exitY=0.5;exitDx=0;exitDy=0;exitPerimeter=0;" edge="1" parent="1" source="38" target="82">
                    <mxGeometry relative="1" as="geometry">
                        <mxPoint x="250" y="720" as="sourcePoint"/>
                        <mxPoint x="430.5" y="880" as="targetPoint"/>
                        <Array as="points">
                            <mxPoint x="320" y="960"/>
                            <mxPoint x="270" y="910"/>
                            <mxPoint x="250" y="740"/>
                            <mxPoint x="426" y="750"/>
                            <mxPoint x="470" y="770"/>
                            <mxPoint x="368" y="790"/>
                            <mxPoint x="508" y="740"/>
                            <mxPoint x="438" y="720"/>
                        </Array>
                    </mxGeometry>
                </mxCell>
                <mxCell id="110" style="html=1;entryX=0;entryY=0.5;entryDx=0;entryDy=0;entryPerimeter=0;edgeStyle=elbowEdgeStyle;endArrow=none;endFill=0;exitX=1;exitY=0.5;exitDx=0;exitDy=0;exitPerimeter=0;" edge="1" parent="1" source="47" target="75">
                    <mxGeometry relative="1" as="geometry">
                        <mxPoint x="580" y="436.25" as="sourcePoint"/>
                        <mxPoint x="652" y="493.75" as="targetPoint"/>
                    </mxGeometry>
                </mxCell>
                <mxCell id="114" value="&amp;lt;&amp;lt;node&amp;gt;&amp;gt;&lt;br&gt;Authenticator Service" style="html=1;outlineConnect=0;whiteSpace=wrap;shape=mxgraph.archimate.application;appType=node;align=center;verticalAlign=top;" vertex="1" parent="1">
                    <mxGeometry x="320.5" y="120" width="209" height="110" as="geometry"/>
                </mxCell>
                <mxCell id="115" value="«c&lt;span style=&quot;border-color: var(--border-color);&quot;&gt;omponent&lt;/span&gt;»&lt;br&gt;Idnetitiy and Access &lt;br&gt;Management" style="html=1;dropTarget=0;verticalAlign=top;" vertex="1" parent="1">
                    <mxGeometry x="335" y="170" width="180" height="50" as="geometry"/>
                </mxCell>
                <mxCell id="116" value="" style="shape=module;jettyWidth=8;jettyHeight=4;" vertex="1" parent="115">
                    <mxGeometry x="1" width="20" height="20" relative="1" as="geometry">
                        <mxPoint x="-27" y="7" as="offset"/>
                    </mxGeometry>
                </mxCell>
                <mxCell id="121" style="html=1;entryX=0.5;entryY=1;entryDx=0;entryDy=0;entryPerimeter=0;edgeStyle=elbowEdgeStyle;endArrow=none;endFill=0;" edge="1" parent="1" target="114">
                    <mxGeometry relative="1" as="geometry">
                        <mxPoint x="425" y="270" as="sourcePoint"/>
                        <mxPoint x="520.5" y="655" as="targetPoint"/>
                        <Array as="points">
                            <mxPoint x="425" y="250"/>
                        </Array>
                    </mxGeometry>
                </mxCell>
                <mxCell id="144" style="edgeStyle=orthogonalEdgeStyle;html=1;exitX=0;exitY=0.5;exitDx=0;exitDy=0;exitPerimeter=0;entryX=1;entryY=0.5;entryDx=0;entryDy=0;entryPerimeter=0;endArrow=none;endFill=0;" edge="1" parent="1" source="133" target="136">
                    <mxGeometry relative="1" as="geometry"/>
                </mxCell>
                <mxCell id="133" value="&amp;lt;&amp;lt;node&amp;gt;&amp;gt;&lt;br&gt;Metrics &amp;amp; Logs Database" style="html=1;outlineConnect=0;whiteSpace=wrap;shape=mxgraph.archimate.application;appType=node;align=center;verticalAlign=top;" vertex="1" parent="1">
                    <mxGeometry x="920" y="415" width="240" height="185" as="geometry"/>
                </mxCell>
                <mxCell id="134" value="«c&lt;span style=&quot;border-color: var(--border-color);&quot;&gt;omponent&lt;/span&gt;»&lt;br&gt;System health, performance &lt;br&gt;data" style="html=1;dropTarget=0;verticalAlign=top;" vertex="1" parent="1">
                    <mxGeometry x="940" y="465" width="200" height="50" as="geometry"/>
                </mxCell>
                <mxCell id="135" value="" style="shape=module;jettyWidth=8;jettyHeight=4;" vertex="1" parent="134">
                    <mxGeometry x="1" width="20" height="20" relative="1" as="geometry">
                        <mxPoint x="-27" y="7" as="offset"/>
                    </mxGeometry>
                </mxCell>
                <mxCell id="145" style="edgeStyle=orthogonalEdgeStyle;html=1;exitX=0;exitY=0.5;exitDx=0;exitDy=0;exitPerimeter=0;entryX=1;entryY=0.5;entryDx=0;entryDy=0;entryPerimeter=0;endArrow=none;endFill=0;" edge="1" parent="1" source="136" target="47">
                    <mxGeometry relative="1" as="geometry">
                        <Array as="points">
                            <mxPoint x="580" y="582"/>
                            <mxPoint x="580" y="420"/>
                        </Array>
                    </mxGeometry>
                </mxCell>
                <mxCell id="136" value="&amp;lt;&amp;lt;node&amp;gt;&amp;gt;&lt;br&gt;Monitoring &amp;amp; Analytics Server" style="html=1;outlineConnect=0;whiteSpace=wrap;shape=mxgraph.archimate.application;appType=node;align=center;verticalAlign=top;" vertex="1" parent="1">
                    <mxGeometry x="620" y="345" width="240" height="475" as="geometry"/>
                </mxCell>
                <mxCell id="137" value="«c&lt;span style=&quot;border-color: var(--border-color);&quot;&gt;omponent&lt;/span&gt;»&lt;br&gt;Data Collector" style="html=1;dropTarget=0;verticalAlign=top;" vertex="1" parent="1">
                    <mxGeometry x="640" y="395" width="200" height="60" as="geometry"/>
                </mxCell>
                <mxCell id="138" value="" style="shape=module;jettyWidth=8;jettyHeight=4;" vertex="1" parent="137">
                    <mxGeometry x="1" width="20" height="20" relative="1" as="geometry">
                        <mxPoint x="-27" y="7" as="offset"/>
                    </mxGeometry>
                </mxCell>
                <mxCell id="139" value="«c&lt;span style=&quot;border-color: var(--border-color);&quot;&gt;omponent&lt;/span&gt;»&lt;br&gt;Log Processor" style="html=1;dropTarget=0;verticalAlign=top;" vertex="1" parent="1">
                    <mxGeometry x="640" y="465" width="200" height="60" as="geometry"/>
                </mxCell>
                <mxCell id="140" value="" style="shape=module;jettyWidth=8;jettyHeight=4;" vertex="1" parent="139">
                    <mxGeometry x="1" width="20" height="20" relative="1" as="geometry">
                        <mxPoint x="-27" y="7" as="offset"/>
                    </mxGeometry>
                </mxCell>
                <mxCell id="141" value="«c&lt;span style=&quot;border-color: var(--border-color);&quot;&gt;omponent&lt;/span&gt;»&lt;br&gt;Metrics Aggregator" style="html=1;dropTarget=0;verticalAlign=top;whiteSpace=wrap;" vertex="1" parent="1">
                    <mxGeometry x="640" y="535" width="200" height="60" as="geometry"/>
                </mxCell>
                <mxCell id="142" value="" style="shape=module;jettyWidth=8;jettyHeight=4;" vertex="1" parent="141">
                    <mxGeometry x="1" width="20" height="20" relative="1" as="geometry">
                        <mxPoint x="-27" y="7" as="offset"/>
                    </mxGeometry>
                </mxCell>
                <mxCell id="150" value="«c&lt;span style=&quot;border-color: var(--border-color);&quot;&gt;omponent&lt;/span&gt;»&lt;br&gt;Alert Manager" style="html=1;dropTarget=0;verticalAlign=top;whiteSpace=wrap;" vertex="1" parent="1">
                    <mxGeometry x="640" y="610" width="200" height="60" as="geometry"/>
                </mxCell>
                <mxCell id="151" value="" style="shape=module;jettyWidth=8;jettyHeight=4;" vertex="1" parent="150">
                    <mxGeometry x="1" width="20" height="20" relative="1" as="geometry">
                        <mxPoint x="-27" y="7" as="offset"/>
                    </mxGeometry>
                </mxCell>
                <mxCell id="152" value="«c&lt;span style=&quot;border-color: var(--border-color);&quot;&gt;omponent&lt;/span&gt;»&lt;br&gt;Analysis Engine" style="html=1;dropTarget=0;verticalAlign=top;whiteSpace=wrap;" vertex="1" parent="1">
                    <mxGeometry x="640" y="680" width="200" height="60" as="geometry"/>
                </mxCell>
                <mxCell id="153" value="" style="shape=module;jettyWidth=8;jettyHeight=4;" vertex="1" parent="152">
                    <mxGeometry x="1" width="20" height="20" relative="1" as="geometry">
                        <mxPoint x="-27" y="7" as="offset"/>
                    </mxGeometry>
                </mxCell>
                <mxCell id="154" value="«c&lt;span style=&quot;border-color: var(--border-color);&quot;&gt;omponent&lt;/span&gt;»&lt;br&gt;Reporting Tool" style="html=1;dropTarget=0;verticalAlign=top;whiteSpace=wrap;" vertex="1" parent="1">
                    <mxGeometry x="640" y="750" width="200" height="60" as="geometry"/>
                </mxCell>
                <mxCell id="155" value="" style="shape=module;jettyWidth=8;jettyHeight=4;" vertex="1" parent="154">
                    <mxGeometry x="1" width="20" height="20" relative="1" as="geometry">
                        <mxPoint x="-27" y="7" as="offset"/>
                    </mxGeometry>
                </mxCell>
                <mxCell id="166" style="edgeStyle=orthogonalEdgeStyle;html=1;exitX=0;exitY=0.5;exitDx=0;exitDy=0;exitPerimeter=0;entryX=1;entryY=0.5;entryDx=0;entryDy=0;entryPerimeter=0;endArrow=none;endFill=0;" edge="1" parent="1" source="156" target="136">
                    <mxGeometry relative="1" as="geometry"/>
                </mxCell>
                <mxCell id="156" value="&amp;lt;&amp;lt;node&amp;gt;&amp;gt;&lt;br&gt;Analytics Database" style="html=1;outlineConnect=0;whiteSpace=wrap;shape=mxgraph.archimate.application;appType=node;align=center;verticalAlign=top;" vertex="1" parent="1">
                    <mxGeometry x="920" y="640" width="240" height="180" as="geometry"/>
                </mxCell>
                <mxCell id="157" value="«c&lt;span style=&quot;border-color: var(--border-color);&quot;&gt;omponent&lt;/span&gt;»&lt;br&gt;User behaviour data" style="html=1;dropTarget=0;verticalAlign=top;" vertex="1" parent="1">
                    <mxGeometry x="940" y="690" width="200" height="50" as="geometry"/>
                </mxCell>
                <mxCell id="158" value="" style="shape=module;jettyWidth=8;jettyHeight=4;" vertex="1" parent="157">
                    <mxGeometry x="1" width="20" height="20" relative="1" as="geometry">
                        <mxPoint x="-27" y="7" as="offset"/>
                    </mxGeometry>
                </mxCell>
                <mxCell id="162" value="«c&lt;span style=&quot;border-color: var(--border-color);&quot;&gt;omponent&lt;/span&gt;»&lt;br&gt;OCR &amp;amp; Rendering logs" style="html=1;dropTarget=0;verticalAlign=top;" vertex="1" parent="1">
                    <mxGeometry x="940" y="530" width="200" height="50" as="geometry"/>
                </mxCell>
                <mxCell id="163" value="" style="shape=module;jettyWidth=8;jettyHeight=4;" vertex="1" parent="162">
                    <mxGeometry x="1" width="20" height="20" relative="1" as="geometry">
                        <mxPoint x="-27" y="7" as="offset"/>
                    </mxGeometry>
                </mxCell>
                <mxCell id="164" value="«c&lt;span style=&quot;border-color: var(--border-color);&quot;&gt;omponent&lt;/span&gt;»&lt;br&gt;System usage data" style="html=1;dropTarget=0;verticalAlign=top;" vertex="1" parent="1">
                    <mxGeometry x="940" y="750" width="200" height="50" as="geometry"/>
                </mxCell>
                <mxCell id="165" value="" style="shape=module;jettyWidth=8;jettyHeight=4;" vertex="1" parent="164">
                    <mxGeometry x="1" width="20" height="20" relative="1" as="geometry">
                        <mxPoint x="-27" y="7" as="offset"/>
                    </mxGeometry>
                </mxCell>
                <mxCell id="180" style="edgeStyle=orthogonalEdgeStyle;html=1;endArrow=none;endFill=0;" edge="1" parent="1" target="47">
                    <mxGeometry relative="1" as="geometry">
                        <mxPoint x="213" y="420" as="sourcePoint"/>
                        <Array as="points">
                            <mxPoint x="260" y="420"/>
                            <mxPoint x="260" y="420"/>
                        </Array>
                    </mxGeometry>
                </mxCell>
                <mxCell id="181" style="edgeStyle=orthogonalEdgeStyle;html=1;entryX=0.5;entryY=0;entryDx=0;entryDy=0;entryPerimeter=0;endArrow=none;endFill=0;" edge="1" parent="1" source="168" target="38">
                    <mxGeometry relative="1" as="geometry"/>
                </mxCell>
                <mxCell id="168" value="&amp;lt;&amp;lt;node&amp;gt;&amp;gt;&lt;br&gt;Input Handler" style="html=1;outlineConnect=0;whiteSpace=wrap;shape=mxgraph.archimate.application;appType=node;align=center;verticalAlign=top;" vertex="1" parent="1">
                    <mxGeometry x="10" y="300" width="240" height="340" as="geometry"/>
                </mxCell>
                <mxCell id="169" value="«c&lt;span style=&quot;border-color: var(--border-color);&quot;&gt;omponent&lt;/span&gt;»&lt;br&gt;Keyboard input handler" style="html=1;dropTarget=0;verticalAlign=top;" vertex="1" parent="1">
                    <mxGeometry x="30" y="340" width="200" height="60" as="geometry"/>
                </mxCell>
                <mxCell id="170" value="" style="shape=module;jettyWidth=8;jettyHeight=4;" vertex="1" parent="169">
                    <mxGeometry x="1" width="20" height="20" relative="1" as="geometry">
                        <mxPoint x="-27" y="7" as="offset"/>
                    </mxGeometry>
                </mxCell>
                <mxCell id="171" value="«c&lt;span style=&quot;border-color: var(--border-color);&quot;&gt;omponent&lt;/span&gt;»&lt;br&gt;Hand writing handler" style="html=1;dropTarget=0;verticalAlign=top;" vertex="1" parent="1">
                    <mxGeometry x="30" y="490" width="200" height="60" as="geometry"/>
                </mxCell>
                <mxCell id="172" value="" style="shape=module;jettyWidth=8;jettyHeight=4;" vertex="1" parent="171">
                    <mxGeometry x="1" width="20" height="20" relative="1" as="geometry">
                        <mxPoint x="-27" y="7" as="offset"/>
                    </mxGeometry>
                </mxCell>
                <mxCell id="173" value="«c&lt;span style=&quot;border-color: var(--border-color);&quot;&gt;omponent&lt;/span&gt;»&lt;br&gt;Image input handler" style="html=1;dropTarget=0;verticalAlign=top;whiteSpace=wrap;" vertex="1" parent="1">
                    <mxGeometry x="30" y="410" width="200" height="60" as="geometry"/>
                </mxCell>
                <mxCell id="174" value="" style="shape=module;jettyWidth=8;jettyHeight=4;" vertex="1" parent="173">
                    <mxGeometry x="1" width="20" height="20" relative="1" as="geometry">
                        <mxPoint x="-27" y="7" as="offset"/>
                    </mxGeometry>
                </mxCell>
                <mxCell id="175" value="«c&lt;span style=&quot;border-color: var(--border-color);&quot;&gt;omponent&lt;/span&gt;»&lt;br&gt;PDF handler" style="html=1;dropTarget=0;verticalAlign=top;" vertex="1" parent="1">
                    <mxGeometry x="30" y="560" width="200" height="60" as="geometry"/>
                </mxCell>
                <mxCell id="176" value="" style="shape=module;jettyWidth=8;jettyHeight=4;" vertex="1" parent="175">
                    <mxGeometry x="1" width="20" height="20" relative="1" as="geometry">
                        <mxPoint x="-27" y="7" as="offset"/>
                    </mxGeometry>
                </mxCell>
            </root>
        </mxGraphModel>
    </diagram>
</mxfile>